<svg viewBox="0 0 31 31" fill="none" xmlns="http://www.w3.org/2000/svg"><path d="M2.332 1.823L21.15.441c1.111-.078 2.131.624 2.418 1.683l6.6 24.748c.23.87-.4 1.716-1.318 1.794L9.976 30.06c-1.112.078-2.132-.624-2.407-1.671L.89 3.795c-.264-.947.435-1.905 1.443-1.972z" fill="#0B0B0C"/><path d="M2.172 3.673l20.1-1.55 6.486 24.348-20.25 1.66L2.173 3.673z" fill="#F6F7F8"/><path d="M3.547 5.177l4.228-.279.608 1.917-4.355.267-.481-1.905z" fill="#DD4BC2"/><path d="M8.12 4.954l4.228-.279.538 1.794-4.16.29-.607-1.805z" fill="#E4343F"/><path d="M12.726 4.586l4.217-.278.665 1.771-4.275.312-.607-1.805z" fill="#EB6A2E"/><path d="M17.321 4.218l4.423-.323.493 1.783-4.308.346-.608-1.806z" fill="#E9687E"/><path d="M23.028 10.236l.424 1.727L6.09 13.278S4.819 9.69 6.148 9.4c1.33-.29 3.747 2.741 5.5 2.485 1.754-.256 1.147-3.443 4.653-3.622 3.507-.167 6.727 1.973 6.727 1.973z" fill="#EB6A2E"/></svg>