<svg xmlns="http://www.w3.org/2000/svg" fill="none" viewBox="0 0 439 200">
  <path fill="#2D2D2D" d="M185.213 199.894H15.319c-8.298 0-15-6.703-15-15V15c0-8.298 6.702-15 15-15h169.894c8.298 0 15 6.702 15 15v169.894c0 8.297-6.702 15-15 15z"/>
  <path fill="#FB295B" d="M165.213 148.936c5.522 0 10-4.477 10-10s-4.478-10-10-10c-5.523 0-10 4.477-10 10s4.477 10 10 10z"/>
  <path fill="#000" d="M243.298 81.808c2.766 0 5.319.532 7.447 1.49 2.234 1.064 4.042 2.447 5.532 4.149 1.489 1.808 2.659 3.83 3.404 6.276.745 2.447 1.17 5 1.17 7.873 0 2.766-.425 5.425-1.17 7.766-.745 2.446-1.915 4.468-3.404 6.276-1.49 1.809-3.405 3.085-5.532 4.149-2.234.958-4.681 1.489-7.447 1.489h-15V81.808h15zm0 35.958c2.234 0 4.255-.426 5.957-1.277s3.192-1.915 4.362-3.404c1.17-1.489 2.128-3.192 2.66-5.106.638-1.915.851-4.043.851-6.383s-.32-4.469-.851-6.383c-.639-2.022-1.49-3.724-2.66-5.213-1.17-1.49-2.66-2.553-4.362-3.404s-3.723-1.277-5.957-1.277h-11.17v32.447h11.17zm52.766 3.617h-23.192V81.808h22.66v3.511h-18.83v14.787h16.383v3.511h-16.383v14.042h19.362v3.724zm22.234.532c-1.915 0-3.724-.319-5.319-.958a15.82 15.82 0 0 1-4.149-2.446c-1.17-1.064-2.022-2.235-2.766-3.618-.638-1.382-1.064-2.765-1.17-4.148h3.723c.106.957.426 1.914.851 2.766.426.957 1.17 1.702 1.915 2.446.851.745 1.808 1.277 2.979 1.702 1.17.426 2.34.639 3.723.639 1.596 0 2.979-.213 4.149-.639 1.17-.425 2.128-1.063 2.979-1.808.744-.745 1.383-1.596 1.808-2.447.426-.957.639-1.915.639-2.766 0-1.064-.213-2.021-.639-2.766-.425-.851-1.064-1.489-1.702-2.127-.745-.639-1.596-1.064-2.447-1.49a15.222 15.222 0 0 0-2.872-.957l-5.319-1.277c-2.021-.532-3.617-1.17-4.894-1.915-1.276-.744-2.127-1.596-2.872-2.553-.638-.957-1.064-1.808-1.277-2.766-.212-.957-.319-1.808-.319-2.66 0-1.595.319-3.085 1.064-4.468.638-1.276 1.596-2.446 2.766-3.404a11.347 11.347 0 0 1 4.042-2.127c1.49-.532 3.086-.745 4.788-.745 1.702 0 3.298.213 4.787.745 1.489.531 2.766 1.17 3.83 2.127 1.064.958 2.021 2.022 2.659 3.404a9.88 9.88 0 0 1 1.064 4.468h-3.83c-.106-2.127-.957-3.936-2.553-5.212-1.596-1.277-3.617-1.915-6.064-1.915-1.064 0-2.234.213-3.191.532a7.684 7.684 0 0 0-2.766 1.49c-.851.637-1.489 1.382-1.915 2.233-.426.851-.745 1.915-.745 2.979 0 .425.107.957.213 1.596.106.638.426 1.17.851 1.808.426.638 1.064 1.17 1.915 1.702s2.021.958 3.511 1.277l5.319 1.276c3.085.745 5.638 2.022 7.659 3.724 2.022 1.702 2.979 4.042 2.979 6.915 0 1.383-.319 2.766-.851 4.149a9.744 9.744 0 0 1-2.553 3.723 11.638 11.638 0 0 1-4.149 2.66 20.447 20.447 0 0 1-5.851.851zm28.511-40.107v39.575h-3.83V81.808h3.83zm31.702 40.107c-2.766 0-5.426-.532-7.873-1.596s-4.574-2.447-6.383-4.362c-1.808-1.808-3.191-3.936-4.255-6.489s-1.596-5.106-1.596-7.872c0-2.873.532-5.532 1.596-7.98 1.064-2.446 2.447-4.574 4.255-6.489a20.62 20.62 0 0 1 6.383-4.361c2.447-1.064 5.107-1.596 7.873-1.596 2.446 0 4.68.426 6.808 1.277 2.128.85 4.043 1.915 5.745 3.404l-2.553 2.553c-1.383-1.064-2.873-2.021-4.575-2.66-1.702-.638-3.51-.957-5.425-.957-2.341 0-4.468.426-6.383 1.277-2.022.85-3.724 2.127-5.107 3.617-1.489 1.49-2.553 3.298-3.404 5.319s-1.277 4.149-1.277 6.489c0 2.341.426 4.468 1.277 6.49.851 2.021 1.915 3.829 3.404 5.319 1.49 1.489 3.192 2.659 5.107 3.617a16.282 16.282 0 0 0 6.383 1.276c1.915 0 3.617-.212 5.212-.744 1.596-.532 3.085-1.277 4.256-2.341 1.276-1.064 2.234-2.234 3.085-3.723.851-1.49 1.383-3.192 1.596-5.107l.106-.851h-11.915v-3.297h15.958c0 3.297-.532 6.276-1.383 8.723-.958 2.447-2.235 4.574-3.83 6.17a15.086 15.086 0 0 1-5.851 3.617c-2.128.851-4.575 1.277-7.234 1.277zm57.021-.532h-3.936l-20.213-32.979v32.979h-3.83V81.808h3.936l20.213 32.873V81.808h3.83v39.575zM238.83 190.745c-1.915 0-3.724-.32-5.319-.958a15.795 15.795 0 0 1-4.149-2.447c-1.171-1.064-2.022-2.234-2.766-3.617-.639-1.383-1.064-2.766-1.17-4.149h3.723c.106.958.425 1.915.851 2.766.425.958 1.17 1.702 1.915 2.447.851.745 1.808 1.277 2.979 1.702 1.17.426 2.34.639 3.723.639 1.596 0 2.979-.213 4.149-.639 1.17-.425 2.128-1.064 2.979-1.808.744-.745 1.383-1.596 1.808-2.447.426-.958.638-1.915.638-2.766 0-1.064-.212-2.021-.638-2.766-.425-.851-1.064-1.489-1.702-2.128-.745-.638-1.596-1.063-2.447-1.489a15.08 15.08 0 0 0-2.872-.957l-5.319-1.277c-2.022-.532-3.617-1.17-4.894-1.915-1.276-.745-2.128-1.596-2.872-2.553-.639-.958-1.064-1.809-1.277-2.766-.213-.958-.319-1.809-.319-2.66 0-1.595.319-3.085 1.064-4.468.638-1.276 1.596-2.447 2.766-3.404a11.362 11.362 0 0 1 4.042-2.128c1.49-.532 3.085-.744 4.788-.744 1.702 0 3.297.212 4.68.744 1.49.532 2.766 1.171 3.83 2.128 1.064.957 2.022 2.021 2.66 3.404a9.895 9.895 0 0 1 1.064 4.468h-3.83c-.107-2.127-.958-3.936-2.553-5.212-1.596-1.277-3.617-1.915-6.064-1.915-1.064 0-2.234.212-3.192.532a7.695 7.695 0 0 0-2.766 1.489c-.851.638-1.489 1.383-1.914 2.234-.426.851-.745 1.915-.745 2.979 0 .425.106.957.213 1.595.106.639.425 1.171.851 1.809.425.638 1.063 1.17 1.915 1.702.851.532 2.021.958 3.51 1.277l5.319 1.276c3.085.745 5.639 2.022 7.66 3.724 2.021 1.702 2.979 4.042 2.979 6.915 0 1.383-.32 2.766-.851 4.149a9.743 9.743 0 0 1-2.554 3.723 11.606 11.606 0 0 1-4.149 2.659c-1.595.532-3.51.852-5.744.852zm35.851-36.49v35.958h-3.83v-35.958h-12.553v-3.51h28.936v3.51h-12.553zm36.17 36.49c-1.915 0-3.723-.32-5.426-.958a13.74 13.74 0 0 1-4.468-2.766c-1.276-1.17-2.34-2.659-3.085-4.362-.744-1.702-1.17-3.617-1.17-5.851v-26.17h3.83v26.17c0 1.596.319 3.085.851 4.362.532 1.277 1.277 2.341 2.234 3.192.957.851 2.021 1.489 3.298 2.021 1.276.532 2.553.638 3.936.638s2.766-.213 3.936-.638c1.17-.426 2.341-1.064 3.298-2.021.958-.958 1.702-1.915 2.234-3.192.532-1.277.851-2.766.851-4.362v-26.17H325v26.17c0 2.128-.426 4.149-1.17 5.851-.745 1.703-1.809 3.192-3.085 4.362a13.74 13.74 0 0 1-4.468 2.766c-1.703.638-3.511.958-5.426.958zm43.192-40.107c2.765 0 5.319.532 7.446 1.49 2.234 1.063 4.043 2.446 5.532 4.148 1.49 1.809 2.66 3.83 3.405 6.277.744 2.447 1.17 5 1.17 7.872 0 2.766-.426 5.426-1.17 7.766-.745 2.447-1.915 4.468-3.405 6.277-1.489 1.808-3.404 3.085-5.532 4.149-2.234.957-4.681 1.489-7.446 1.489h-15v-39.574h15v.106zm0 35.958c2.234 0 4.255-.426 5.957-1.277s3.191-1.915 4.362-3.404c1.17-1.49 2.021-3.192 2.659-5.107.639-1.915.851-4.042.851-6.383 0-2.34-.319-4.468-.851-6.383-.638-2.021-1.489-3.723-2.659-5.212-1.171-1.49-2.66-2.554-4.362-3.405s-3.723-1.276-5.957-1.276h-11.171v32.447h11.171zm33.297-35.958v39.575h-3.829v-39.575h3.829zm31.596 40.107c-2.766 0-5.425-.532-7.872-1.596s-4.575-2.447-6.383-4.362c-1.809-1.808-3.192-3.936-4.255-6.489-1.064-2.553-1.596-5.107-1.596-7.873 0-2.872.532-5.532 1.596-7.978 1.063-2.447 2.446-4.575 4.255-6.49a20.599 20.599 0 0 1 6.383-4.361c2.447-1.064 5.106-1.596 7.872-1.596 2.872 0 5.426.532 7.872 1.596 2.447 1.063 4.575 2.446 6.277 4.361 1.809 1.809 3.192 3.936 4.255 6.49a20.158 20.158 0 0 1 1.596 7.978c0 2.766-.532 5.426-1.596 7.873-1.063 2.447-2.446 4.574-4.255 6.489-1.808 1.809-3.83 3.298-6.277 4.362-2.34 1.064-5 1.596-7.872 1.596zm0-3.511c2.341 0 4.468-.426 6.383-1.277 2.021-.851 3.724-2.021 5.107-3.617 1.489-1.489 2.553-3.298 3.404-5.319s1.276-4.149 1.276-6.489c0-2.341-.425-4.468-1.276-6.49-.851-2.021-1.915-3.829-3.404-5.319-1.49-1.489-3.192-2.766-5.107-3.617a16.282 16.282 0 0 0-6.383-1.276c-2.34 0-4.468.425-6.383 1.276-2.021.851-3.723 2.128-5.106 3.617-1.49 1.49-2.553 3.298-3.404 5.319-.852 2.022-1.277 4.149-1.277 6.49 0 2.34.425 4.468 1.277 6.489.851 2.021 1.914 3.83 3.404 5.319 1.489 1.49 3.191 2.66 5.106 3.617a16.283 16.283 0 0 0 6.383 1.277zM232.872 15.851v36.064h-3.51V9.255h3.51l18.511 30.32 18.404-30.213h3.404v42.66h-3.617V15.85l-17.021 27.66h-2.766l-16.915-27.66zm60.107 36.064V12.34h-7.766V9.15h11.17v42.766h-3.404zm15.106 0c-.745 0-1.383-.213-2.021-.745-.532-.532-.851-1.17-.851-2.021 0-.745.319-1.383.851-1.915a2.905 2.905 0 0 1 2.021-.851c.851 0 1.489.319 2.021.85.532.533.851 1.171.851 1.916 0 .85-.319 1.49-.851 2.021-.532.532-1.17.745-2.021.745z"/>
  <path fill="#fff" d="M110 54.497C113.5 49.5 118.997 50 122.537 50H135v100h-7.684c-8.083 0-14.316-6.372-14.316-14.159V83.98l-10.64 16.049L90.6 84c1.357-2.065 16.9-25.505 19.4-29.503zM43 150h-8V50h16s1.417-.233 4.5 1c3 1.5 4.5 3.5 4.5 3.5l36.5 54-2.5 4s-3.5 4.5-9 4.5-9-4.5-9-4.5L57 84v52s.3 5.5-4.1 9.9c-4.4 4.4-9.9 4.1-9.9 4.1z"/>
</svg>
