<svg viewBox="0 0 83 166" fill="none" xmlns="http://www.w3.org/2000/svg"><path d="M54.636 148.525c-1.885.731-3.389 2.362-2.276 4.423 1.112 2.051 7.92 13.257 11 12.276 2.071-.66 1.216-3.852-.525-7.504-1.74-3.652-5.82-10.125-8.199-9.195zM62.701 126.494c-1.246.69-3.687 1.14-1.091 4.562 2.595 3.422 10.568 10.996 12.33 9.855 1.76-1.14-1.412-6.423-4.698-9.855-2.575-2.691-4.192-5.863-6.54-4.562z" fill="#1A1A38"/><path d="M54.4 152.698c-1.288-.651-2.35-3.762-2.772-5.203.814.11 1.803-.02 2.864-.711 0 0 .587-.25 1.071-1.09.525 1.541 1.246 3.782 1.39 5.083.227 2.121-.865 2.781-2.554 1.921zM66.286 122.601c-.247 1.101-.587 2.522-.906 3.492-.588 1.791-.927 3.342-2.771 2.692-1.319-.471-1.01-4.403-.721-6.604.35.19.803.37 1.339.49.144.03.278.06.432.08.742.111 1.618.101 2.627-.15z" fill="#F09C69"/><path d="M76.546 84.21c-1.206 6.675-6.593 30.277-8.354 37.681a8.82 8.82 0 0 1-1.896.71c-1.01.251-1.885.271-2.616.151a4.751 4.751 0 0 1-.433-.08 5.852 5.852 0 0 1-1.339-.491c-.68-.36-1.04-.74-1.04-.74l1.792-40.832-12.567 4.723s5.676 56.09 5.851 59.471a3.834 3.834 0 0 1-.381.891c-.484.85-1.071 1.09-1.071 1.09-1.061.681-2.04.821-2.864.711-1.36-.17-2.256-1.011-2.256-1.011L34.333 98.459s-3.41 2.111-8.364 1.2C16.812 97.298 14.422 88.023 13.784 83.5c.978.52 2.194.76 3.687.65 5.202-.38 9.044-4.412 12.938-7.433.762-.59 1.514-1.14 2.287-1.621 4.738-2.942 11.66-6.113 13.596-5.883.927.1 1.412-.44 1.484-1.12 7.334-2.022 17.45-4.533 23.28-4.803 9.94-.44 6.695 14.257 5.49 20.92z" fill="#E9687E"/><path d="M49.898 39.567s1.164-2.091 1.73-3.182c.567-1.09.752-2.491 2.524-2.411 1.772.07 5.088.04 5.881.48.794.44 1.999 2.051 1.886 2.742-.114.69-.042 1.39-.68 1.43-.639.04-3.204 1.791-4.182 2.672-.979.88-3.472 3.442-3.472 3.442l-3.687-5.173z" fill="#F4B995"/><path d="M47.786 68.102c-.072.68-.556 1.22-1.483 1.12-1.937-.23-8.859 2.942-13.597 5.884-.773.48-1.535 1.03-2.287 1.62-3.893 3.032-7.736 7.055-12.938 7.435-1.493.11-2.698-.13-3.687-.65-3.132-1.641-4.048-6.114-4.872-11.276C7.83 65.44 4.338 61.138 3.019 56.456c-.206-.75-.35-1.45-.422-2.111-.381-3.492.876-5.733.876-5.733s33.343 5.883 37.927 8.684c-.7 4.533 3.42 8.005 5.13 8.755.906.39 1.328 1.3 1.256 2.051z" fill="#9C9D9D"/><path d="M68.408 35.685c-2.174 5.443-5.964 14.938-6.613 16.95-.412-.02-1.514-.761-2.946-1.882l7.313-17.019c1.051.68 1.762 1.31 2.246 1.951z" fill="#C5C6C6"/><path d="M72.302 45.19c-2.885 6.163-7.84 13.838-8.725 15.168-1.7 2.552-3.626 5.093-8.261 3.222-4.636-1.871-13.267-9.975-13.267-9.975s-7.808-10.566-2.71-19.11c0 0 6.016 3.751 9.879 7.643 2.575 2.602 6.757 6.374 9.631 8.615 1.432 1.12 2.534 1.861 2.946 1.881.649-2.011 4.44-11.516 6.613-16.95 1.216 1.602.978 3.273 1.02 5.914.062 3.512 2.616 3.362 2.874 3.592z" fill="#9D9D9E"/><path d="M82.705 46.681c-3.626.41-10.414 1.1-10.414 1.1s-.01 0-.02-.02c-.248-.23-2.781-2.65-2.833-6.163-.041-2.641.185-4.312-1.02-5.913-.484-.64-1.195-1.27-2.245-1.951l3.152-.3 2.42-.23 5.861-.56s2.03 1.79 1.607 5.252c-.443 3.472 1.175 7.634 3.492 8.785z" fill="#39434C"/><path d="M19.088 26.81c-.515 0-3.11-.88-3.76 1.26-.648 2.142.65 3.403-.648 4.163-1.298.76-12.722 6.173-13.37 9.075-.65 2.901-1.556 8.825 2.853 11.466C8.57 55.416 25.578 63.24 28.05 64.12c2.472.88 7.004 1.01 9.085-1.01 2.08-2.021 17.398-18.03 17.398-18.03l-4.543-5.803-8.95 6.683s1.163-4.162 1.43-5.803c.269-1.64.784-4.162-1.946-5.923-2.73-1.76-5.449-4.032-10.517-2.771-7.674-2.512-10.919-4.653-10.919-4.653zM30.409 76.727c-3.894 3.032-7.736 7.054-12.938 7.434-.875.06-1.648.01-2.338-.16a5.26 5.26 0 0 1-1.35-.5c-3.12-1.631-4.037-6.104-4.861-11.266C7.83 65.44 4.338 61.139 3.019 56.456c-.206-.75-.35-1.45-.422-2.111 5.078 4.623 14.236 12.907 17.635 15.488 3.028 2.291 7.365 5.113 10.177 6.894z" fill="#C5C5C6"/><path d="M32.222 52.594L15.06 43.31l.216-.38 16.904 9.135 9.713-7.294.268.34-9.94 7.484z" fill="#9D9D9E"/><path d="M15.123 21.427s-4.79.47-2.946-3.922c.165-.19.319-.39.494-.57 1.36-1.37 2.266-1.19 2.781.59.289 1 .495 2.011.557 3.062.03.7-.248.9-.886.84zM25.032 14.364c0 1.37-1.143 2.48-2.544 2.48-1.412 0-2.545-1.11-2.545-2.48 0-1.371 1.144-2.472 2.545-2.472 1.4-.01 2.544 1.1 2.544 2.472zM28.75 19.936c-.896 1.481-3.285 1.802-4.934.51 1.927.641 3.513.611 4.934-.51z" fill="#F4B995"/><path d="M30.316 10.281a3.01 3.01 0 0 0-.906-.14c-1.463 0-2.668 1.07-2.843 2.441-.618-.21-1.226.11-1.515.31-.514-.86-1.483-1.43-2.575-1.43-1.576 0-2.873 1.19-2.977 2.701-.752.07-2.152.56-2.812.81-.34-.02-.535-.3-.752-.89-.236-.64-.443-1.59-.309-1.68.01-.01 2.091.53 3.152-.11.577-.35 1.453-1.181 1.793-1.972.206-.47.391-.59.989-.42 1.277.36 2.534.18 3.43-.9.34-.41.607-.25.947-.13 1.33.47 2.678.97 4.09.98h.216c.02.12.052.27.072.43z" fill="#F4B995"/><path d="M31.181 14.543c-.443.46-1.07.74-1.771.74-1.35 0-2.442-1.06-2.442-2.37 0-1.311 1.092-2.372 2.442-2.372.35 0 .69.07.988.21.207 1.171.485 2.602.783 3.793z" fill="#F4B995"/><path d="M31.563 15.824c-.155.63-.268 1.381-1.103 1.441-1.102.08-2.173-.11-2.925-1.05-.02 1.15-.443 1.62-1.38 1.25-.927-.36-1.484.07-2.091.52-.443.33-.804.75-1.226 1.101-1.463 1.18-3.276 1.06-4.574-.3a7.175 7.175 0 0 1-1.277-1.891c-.505-1.05-.597-1.31.113-1.631.752-.27 1.834-.62 2.4-.68.114 1.49 1.412 2.681 2.977 2.681 1.648 0 2.988-1.3 2.988-2.902 0-.38-.073-.75-.217-1.08.216-.15.793-.5 1.298-.22.072 1.47 1.329 2.651 2.853 2.651.721 0 1.391-.26 1.896-.7.092.29.185.57.267.81z" fill="#F4B995"/><path d="M30.316 10.281c.02.15.052.31.083.47.854.37 1.452 1.201 1.452 2.162 0 .63-.258 1.2-.67 1.62.042.16.083.31.124.46.597-.51.968-1.25.968-2.08 0-1.221-.814-2.261-1.957-2.632z" fill="#39434C"/><path d="M35.95 20.017c-1.091-1.741-2.657-3.062-4.388-4.193-.154.63-.267 1.381-1.102 1.441-1.102.08-2.173-.11-2.925-1.05-.02 1.15-.443 1.62-1.38 1.25-.927-.36-1.484.07-2.091.52-.443.33-.804.75-1.226 1.101-1.463 1.18-3.276 1.06-4.574-.3a7.17 7.17 0 0 1-1.277-1.891c-.505-1.05-.597-1.31.113-1.631.752-.27 1.834-.62 2.4-.68.114 1.49 1.412 2.681 2.977 2.681 1.648 0 2.988-1.3 2.988-2.902 0-.38-.073-.75-.217-1.08.216-.15.793-.5 1.298-.22.072 1.47 1.329 2.651 2.853 2.651.721 0 1.391-.26 1.896-.7-.042-.15-.083-.3-.124-.46-.443.46-1.071.74-1.772.74-1.349 0-2.44-1.06-2.44-2.371 0-1.31 1.091-2.371 2.44-2.371.35 0 .69.07.99.21-.032-.16-.052-.32-.083-.47a3.008 3.008 0 0 0-.907-.14c-1.462 0-2.668 1.07-2.843 2.44-.618-.21-1.225.11-1.514.31-.515-.86-1.483-1.43-2.575-1.43-1.576 0-2.874 1.19-2.977 2.701-.752.07-2.153.56-2.812.81-.34-.02-.536-.3-.752-.89-.237-.64-.443-1.59-.309-1.68.01-.01 2.091.53 3.152-.11.577-.35 1.453-1.181 1.792-1.972.206-.47.392-.59.99-.42 1.277.36 2.533.18 3.43-.9.34-.41.607-.25.947-.13 1.329.47 2.678.97 4.09.98h.216c.68-.03 1.267-.24 1.514-.98.917-2.722-1.39-3.692-2.266-4.153 1.432-1.71-.546-1.98-1.216-1.53 1.885-3.032-2.575-3.492-4.748-1.461-3.286-.47-6.294.23-9.096 1.94-2.616 1.602-3.955 4.423-3.389 7.365.042.21.124.4-.01.61-1.38 2.271-.37 4.112 1.143 5.853.165-.19.32-.39.495-.57 1.36-1.37 2.266-1.19 2.781.59.288 1 .494 2.011.556 3.062.041.7-.247.9-.875.84.71 1.261 1.081 2.602 1.205 3.992.113 1.251.525 2.462 1.277 3.482 1.35 1.831 3.41 2.972 5.913 3.372 4.15.67 7.674.01 10.455-2.141 3.44-2.641 4.254-6.474 1.978-10.115zm-13.473-8.135c1.412 0 2.545 1.11 2.545 2.472 0 1.37-1.144 2.48-2.545 2.48-1.41 0-2.544-1.11-2.544-2.48 0-1.361 1.133-2.472 2.544-2.472zm1.34 8.565c1.926.64 3.512.6 4.933-.51-.896 1.48-3.285 1.8-4.934.51z" fill="#39434C"/><path d="M23.168 15.334a.546.546 0 0 1-.557-.54c0-.3.247-.54.556-.54.31 0 .557.24.557.54 0 .3-.247.54-.556.54zM29.647 14.023a.546.546 0 0 1-.557-.54c0-.3.248-.54.557-.54.309 0 .556.24.556.54 0 .3-.247.54-.556.54zM19.871 12.352l-.391-.21c1.463-2.641 4.419-1.36 4.45-1.35l-.186.4.093-.2-.093.2c-.113-.04-2.606-1.11-3.873 1.16zM29.08 10.461c-1.411 0-2.297-.28-2.359-.3l.144-.41c.021.01 1.916.61 4.533.02l.103.42c-.907.2-1.72.27-2.42.27z" fill="#39434C"/><path fill-rule="evenodd" clip-rule="evenodd" d="M14.925 32.06l.146-.177.146-.177.002.002.009.007.036.027.146.107c.13.092.32.224.568.382.495.316 1.213.737 2.102 1.15 1.781.827 4.238 1.62 6.963 1.508l.02.452c-2.828.117-5.362-.706-7.183-1.552a18.525 18.525 0 0 1-2.158-1.18 13.983 13.983 0 0 1-.742-.508l-.04-.03-.01-.008-.003-.003h-.001z" fill="#9D9D9E"/><path d="M34.333 98.459s-3.41 2.111-8.364 1.2C16.812 97.298 14.422 88.023 13.784 83.5c.412.22.854.39 1.349.5.309 2.522 1.442 7.295 5.583 9.296 5.758 2.771 12.69 1.09 12.69 1.09l.927 4.073zM62.65 80.6l-12.567 4.722s-.566-4.513-6.221-5.874c9.785.71 18.788 1.151 18.788 1.151z" fill="#E6485E"/><path d="M67.378 89.944c-.155 1.06-.31 2.141-.443 3.222-1.174 8.935-3.152 28.475-3.265 29.586a4.751 4.751 0 0 1-.433-.08c.144-1.431 2.091-20.701 3.255-29.556.144-1.08.288-2.161.443-3.232 1.154-8.114 2.142-15.128-2.4-16.049-5.233-1.06-18.098 6.094-18.222 6.164l-.227-.38c.526-.3 13.134-7.304 18.542-6.214 4.954 1 3.934 8.205 2.75 16.54z" fill="#E6485E"/></svg>