<svg viewBox="0 0 14 14" fill="none" xmlns="http://www.w3.org/2000/svg"><path d="M12.743 11.817l-1.175 1.01S3.297 4.673.835 2.202c-.391-.4-.639-.65-.68-.69C-.123 1.17-.02.8.433.5.887.2.96.16 1.237.36c.041.03.309.29.731.71 2.544 2.501 10.775 10.746 10.775 10.746z" fill="#C5C6C6"/><path d="M1.968 1.071L.835 2.201c-.391-.4-.639-.65-.68-.69-.278-.34-.175-.71.278-1.01C.887.2.96.16 1.237.36c.041.04.298.3.731.71zM13.165 13.187l-.587-.13-1.01-.23c.103-1.13 1.175-1.01 1.175-1.01l.257.83.165.54z" fill="#DD4BC2"/><path d="M13.165 13.187l-.587-.13c.041-.3.247-.38.422-.41l.165.54z" fill="#39434C"/></svg>