<svg viewBox="0 0 96 154" fill="none" xmlns="http://www.w3.org/2000/svg"><path d="M21.622 104.014c-1.628-.011-3.083.568-4.527 1.203 0-1.638.046-3.12.046-4.747.47.134.882.123 1.352.246.08.022.172.033.252.055 1.112.479 2.28.323 3.438.323-.183.97-.367 1.95-.561 2.92zM22.87 30.126s-2.784-7.923-1.145-10.018c1.627-2.095 2.83-2.841 2.83-2.841l.963 3.465s1.42-.3 2.005-.869c1.146-1.114 1.742-1.025 1.902-.735.436.824-.47 2.284-2.005 3.955a.98.98 0 0 1-.16.145c-1.696 1.415.355 5.828.355 5.828l-4.744 1.07z" fill="#F4B995"/><path d="M43.91 97.952c-3.013 2.641-6.027 5.282-9.053 7.912a755.713 755.713 0 0 1-5.592 4.847c-.355.301-.561.68-.768 1.07-4.182 8.045-8.377 16.079-12.56 24.124-.16-.892-.733-1.404-1.57-1.694-.137-.089-.274-.189-.423-.267-1.49-.747-3.06-.78-4.676-.557 1.65-4.647 3.3-9.282 4.95-13.918 1.708.936 2.614.78 3.782-.735 2.521-3.276 4.149-7.009 5.616-10.798.343-.891.424-1.816-.035-2.719-.057-.066-.103-.133-.16-.189-.069-.089-.15-.189-.218-.29-.367-.568-1.008-.579-1.581-.724.183-.981.378-1.95.573-2.919.286-.056.527-.101.721-.145.08-.023.161-.034.23-.056l.103-.033c.034-.012.069-.023.091-.034.035-.011.058-.022.092-.033.619-.268.7-.78.974-2.43.138-.869.252-1.738.367-2.607 2.246-3.287 4.229-6.73 6.349-10.084.744 1.07 1.478 2.15 2.223 3.209.091.134.183.256.275.39.183.256.366.513.55.758.091.122.183.256.275.379.091.122.183.245.286.378l.012.012c.091.122.183.234.275.356.114.145.229.279.343.424.08.1.172.2.253.3v.09a27.765 27.765 0 0 0 2.658 2.518l.012.011c.057.056.126.111.206.167h.011a23.28 23.28 0 0 0 5.364 3.254c.01 0 .022.011.045.033z" fill="#E6485E"/><path d="M72.135 85.762c-.126 2.864-4.045 7.789-9.81 10.92-5.179 2.82-11.86 4.19-18.644 1.337-8.583-3.61-12.01-11.132-12.502-12.212-.963-2.084-2.384-3.934-3.564-5.906-.08-.134-.16-.223-.332-.19-.126-.724-.562-1.314-.906-1.95-1.455-2.707-3.105-5.326-4.4-8.111-.596-1.27-1.203-2.53-1.8-3.8-.034.468.035.891.127 1.315 1.283 5.994 2.555 12 3.85 17.995.436 2.04.734 4.101 1.352 6.107-.217 1.549-.447 3.086-.664 4.635-.126.87-.23 1.738-.367 2.608-.264 1.649-.355 2.161-.974 2.429-.023.011-.057.022-.092.033-.034.011-.057.022-.091.034l-.104.033c-.068.022-.148.033-.229.056-.206.044-.447.089-.722.145-.962 0-1.948.111-2.887-.134-.058-.011-.115-.034-.172-.045l-1.043-.312c-.332-.089-.665-.189-.986-.278-.183-3.911-.355-7.823-.538-11.745-.16-3.365-.344-6.719-.493-10.084-.183-3.833-.332-7.666-.527-11.489-.138-2.618-.413-5.226-.31-7.855.138-3.622 3.393-6.485 7.025-6.151 2.2.2 4 1.315 5.684 2.63 1.845 1.448 3.209 3.343 4.767 5.059 2.43 2.663 4.79 5.382 7.185 8.078 1.547 1.727 3.094 3.454 4.653 5.17.046.557.011 1.126.011 1.683 6.796 1.237 27.71 5.449 27.503 9.995z" fill="#E9687E"/><path d="M72.078 85.617c-.126 2.864-4.046 7.789-9.81 10.92-11.493-1.76-15.676-8.09-17.132-13.327l-.068-.234c-1.066-4.033-.527-7.365-.527-7.365 6.83 1.248 27.743 5.46 27.537 10.006z" fill="#E6485E"/><path d="M13.084 136.284c.012-.858.929-1.371 1.284-2.073.836.29 1.41.814 1.57 1.694-.745.847-1.983.301-2.854.379z" fill="#3A444D"/><path d="M14.368 134.211l-2.556 4.513-4.985 1.159 2.441-6.474c0-.011 3.85-2.228 5.1.802z" fill="#F4B995"/><path d="M82.964 50.127c-.046-.212-.091-.446.126-.613.035-.39-.286-.49-.561-.635-1.318-.69-2.579-1.515-3.954-2.039-1.581-.602-2.257-1.504-1.96-3.142.138-.758-.297-1.193-1.11-1.193-3.06.234-6.04-.156-8.905-1.236-.39-.145-.745-.38-1.123-.569-.481.09-.825.39-1.089.747-.802 1.07-1.845 1.315-3.162 1.281-2.407-.078-4.825 0-7.243.023h-.401l-.825-.056H36.278c-2.853.223-4.71-2.697-4.858-4.847-.08-1.148.24-2.273.045-3.432-.126-.78-.676-1.393-.71-2.173-.057-.056-.115-.123-.172-.178-.516-.78-2.04-3.912-4.378-3.5-1.352.235-2.372.39-3.243 1.316a7.727 7.727 0 0 0-1.065 4.2c.08 2.764.94 5.36 1.879 7.934.848 2.318 2.005 4.502 2.945 6.786.596 1.46 1.398 2.764 2.498 3.9 1.72 1.794 3.954 2.608 6.36 3.087 0 0 13.855 2.852 15.08 2.997.035 0 .07.011.081 0 .023.112.046.223.057.346.218 1.281.241 2.562-.194 3.822.275.01.286.2.309.412.367 2.674.756 5.326.905 8.023.07 1.415.103 2.785-.183 4.178-.115.558-.435.959-.951 1.037-.493.078-.894-.234-1.18-.658-1.204-1.727-1.65-3.733-2.166-5.705-.103-.39-.058-.825-.333-1.17-.538.457-.836 1.08-1.203 1.66-.619.992-.745 2.162-1.203 3.21.092 1.203-.126 2.418.16 3.61.275 1.838 1.146 3.387 2.418 4.724 2.877 3.02 6.486 4.836 10.474 6.017 2.567.758 5.203 1.003 7.873.992.848 0 1.684-.223 2.544-.145.149-.055.31-.133.47-.178.676-.178 1.363-.345 2.05-.535 2.637-.735 3.805-2.652 4.401-5.08.94-3.89.963-7.912 1.868-11.801.207-1.282.883-2.362 1.57-3.443 1.02-1.594 2.246-3.031 3.163-4.691 1.1-1.995 1.696-4.101 1.948-6.34.206-2.363-.057-4.647-.573-6.943zM53.937 43.52c0 .012 0 0 0 0zm-2.555 14.43s0 .012 0 0z" fill="#C4C5C5"/><path d="M62.692 96.66c-.011.01-.149-.034-.4-.123.137.045.263.078.4.123z" fill="#00D38E"/><path d="M83.377 28.967c-.012.033.172 1.192.332 1.705.493 1.582 1.066 3.142 1.513 4.735.458 1.627.24 3.187-1.17 4.302-1.363 1.08-2.944.768-4.457.245-.699-.245-1.306-.669-1.856-1.16-.264-.233-.413-.244-.688 0-.412.38-.882.68-1.34 1.015-3.324 1.526-6.636 1.894-9.959.01-.573-.657-1.157-1.058-2.131-.645-.7.29-1.502.167-2.247-.078-2.624-.88-3.128-3.644-1.008-5.471.607-.524 1.352-.892 1.89-1.516 2.304-1.75 2.946-4.19 3.003-6.875.012-.58-.149-.925-.848-.87-.412.034-.848-.066-1.26-.11-.126-.056-.24-.123-.378-.168-2.327-.858-2.911-2.574-1.456-4.546 1.215-1.65 3.782-2.708 5.191-3.109 2.361-.669 7.54-.646 10.486 1.137 2.43 1.47 4.767 5.203 5.397 7.354.665 2.273 1.49 4.569 3.587 5.794.573.334.619.646.367.59-.94-.166-2.968-2.34-2.968-2.34z" fill="#39434B"/><path d="M80.718 86.297c-.206-2.652 1.008-4.613 3.151-6.106.344-.246.413-.457.264-.803-.057-.067-.126-.133-.183-.211l.011.01c-.034-.189-.046-.39-.126-.556-1.719-3.789-2.177-7.79-1.89-11.868.114-1.716.194-3.465.801-5.114 1.192-3.265 1.387-6.586.883-9.973-.046-.334-.94-2.095-.619-2.451.71.813 1.639 3.242 2.097 4.178 2.601 5.338 5.214 10.664 7.391 16.18 1.341 3.398 2.59 6.83 3.026 10.474.355 2.953-.275 5.65-2.223 8.078-1.73 2.173-3.438 4.402-4.504 6.998-.16.38-.344.77-.435 1.17-.7 3.087-2.911 4.435-5.89 4.936-.195.034-.379.112-.562.156-.23-.245-.527-.156-.802-.156-1.536-.011-2.911-.456-4.172-1.326-.641-.445-.905-1.18-1.49-1.649-.137-.702-.309-1.392-.412-2.094-.378-2.641.573-4.837 2.43-6.72.79.557 1.237 1.337 1.535 2.207.138.412.31.835.79.869.517.044.803-.346 1.01-.758.125-.245.194-.501.274-.78.413-1.593-.091-3.131-.355-4.691zM30.743 32.232l.013.012s-.013 0-.013-.012z" fill="#C4C5C5"/><path d="M23.581 105.217c.459.903.378 1.828.035 2.719-1.479 3.789-3.095 7.522-5.616 10.798-1.168 1.515-2.074 1.671-3.781.735-.367-.29-.436-.412-.527-.657-.092-1.025-.447-2.073.046-3.076 1.592-3.253 3.415-6.385 5.535-9.337.893-1.26 2.108-2.285 3.942-1.672.068.1.148.19.217.29.046.078.103.134.15.2z" fill="#39434B"/><path d="M79.171 103.568c-.286 1.037-.607 2.073-.836 3.12-.768 3.455-3.61 5.137-6.842 5.906-.275.067-.664.045-.676-.156-.069-.836-.573-.423-.928-.345-.264.055-.516.122-.7-.123-.16-.223-.114-.49-.01-.713.286-.613.71-1.126 1.145-1.638.31-.368.654-.713.986-1.048.699-.724 1.398-1.437 1.902-2.317.206-.357.63-.791.15-1.17a.837.837 0 0 0-.906-.123 1.61 1.61 0 0 0-.527.39c-.493.524-.894 1.137-1.33 1.716-.206.268-.424.524-.745.658-.275.111-.538.178-.802-.023-.263-.2-.309-.479-.229-.746.15-.468.287-.959.527-1.393.86-1.616 2.052-2.975 3.484-4.134.412-.334.86-.646 1.41-.736.275.546.515 1.092.94 1.56 1.065 1.17 2.44 1.46 3.987 1.315z" fill="#F4B995"/><path d="M83.617 51.687c.516 3.399.31 6.72-.882 9.973-.596 1.638-.676 3.398-.802 5.115-.275 4.078 2.131 12.045 2.017 12.424-1.158-1.594-2.327-3.187-3.472-4.78a510.357 510.357 0 0 1-2.865-4c-.528.255-.424.467-.826 1.136.207-1.282.883-2.362 1.57-3.443 1.02-1.594 2.246-3.031 3.163-4.691 1.1-1.995 1.696-4.101 1.948-6.34.264-2.363 0-4.659-.515-6.943-.046-.212-.126-.68.091-.847.172.368.528 2.062.573 2.396zM50.557 62.953c.275.022.286.2.31.412.366 2.663.756 5.326.893 8.023.08 1.415.103 2.785-.183 4.178-.115.558-.436.959-.951 1.037-.493.078-.894-.234-1.18-.658-1.204-1.727-1.65-3.733-2.167-5.705-.103-.39-.172-.713-.332-1.17.218-.557.71-.902 1.1-1.326 1.295-1.37 2.086-2.997 2.51-4.791zM36.267 42.695c-2.854.222-4.71-2.697-4.859-4.848-.08-1.147.24-2.273.046-3.431-.126-.78-.676-1.393-.71-2.173 3.07 2.863 5.282 6.162 5.523 10.452z" fill="#9D9D9E"/><path d="M23.215 104.738c-1.834-.612-3.049.413-3.943 1.672-2.108 2.953-3.93 6.084-5.534 9.338-.493 1.002-.15 2.05-.046 3.075-.951-1.014-.86-2.217-.608-3.432a6.97 6.97 0 0 1 .837-2.151c.997-1.704 1.616-3.521 1.788-5.471.091-1.047.573-1.883 1.386-2.551 1.444-.624 2.9-1.215 4.527-1.204.573.145 1.214.156 1.593.724z" fill="#535D68"/><path d="M63.162 24.276c.424.044.848.133 1.26.111.7-.056.86.29.849.87-.058 2.685-.7 5.125-3.003 6.874-.023-.568.23-1.203-.527-1.57-.252-.123-.195-.502-.057-.759.08-.167.183-.356.32-.479.906-.869 1.09-1.95.986-3.108.436.11.871.222 1.41.356-.39-.613-.94-.58-1.433-.68.07-.557.127-1.092.195-1.615zM65.763 39.831c3.324 1.883 6.647 1.515 9.959-.011-.069.891-.15 1.783-.218 2.674-3.06.234-6.04-.156-8.904-1.237-.39-.145-.745-.378-1.123-.568.092-.279.183-.568.286-.858z" fill="#F4B995"/><path d="M80.718 86.297c.264 1.56.768 3.109.355 4.713a3.956 3.956 0 0 1-.275.78c-.206.413-.492.803-1.008.758-.481-.044-.653-.457-.79-.87-.299-.868-.746-1.66-1.536-2.205.87-1.282 2.05-2.24 3.254-3.176zM75.447 98.275c.584.468.848 1.204 1.49 1.65 1.26.869 2.635 1.314 4.17 1.326.276 0 .574-.09.803.156-.493.512-1.008 1.002-1.49 1.526-.252.279-.561.323-.894.357-2.143-.747-3.346-2.307-3.965-4.368-.023-.078-.172-.112-.263-.168a5.88 5.88 0 0 1 .149-.479z" fill="#9D9D9E"/><path d="M75.298 98.755c.091.055.24.1.263.167.62 2.061 1.822 3.621 3.965 4.368-.114.089-.24.178-.355.278-1.547.156-2.922-.133-4.01-1.326-.425-.468-.665-1.014-.94-1.56.16-.757.584-1.36 1.077-1.927z" fill="#C4C5C5"/><path d="M62.807 25.813c.493.1 1.49.2 1.868.814-.539-.134-1.467-.38-1.902-.49-.172-.023-.241-.335.034-.324z" fill="#535D68"/><path d="M30.756 32.244c-.058-.068-.127-.123-.184-.19.057.067.115.134.184.19zM83.95 79.177c.057.067.126.134.184.212a1.648 1.648 0 0 1-.184-.212z" fill="#9D9D9E"/><path d="M13.852 139.716c.837.557 1.031 1.281.722 2.217-.195.602-.378 1.215-.768 1.716-2.188 2.775-4.4 5.538-7.093 7.889-.401.346-.825.68-1.272.959-1.455.924-2.189.858-3.541-.312-.734-1.817-.195-3.388 1.146-4.669 2.154-2.073 4.09-4.346 6.406-6.24 1.249-1.014 2.555-2.039 4.4-1.56z" fill="#39434B"/><path d="M13.852 139.716c-1.845-.491-3.151.546-4.4 1.56-2.327 1.894-4.263 4.167-6.406 6.24-1.33 1.281-1.88 2.852-1.146 4.669-1.066-.714-1.123-1.794-.997-2.875.149-1.315.905-2.351 1.81-3.31 1.25-1.315 2.453-2.674 3.095-4.379.263-.691.561-1.337 1.077-1.883 1.203-.969 2.658-.925 4.09-.992l.837-.033c.665.356 1.524.356 2.04 1.003z" fill="#535D68"/><path d="M25.45 91.122c-.631-1.995-.918-4.067-1.353-6.106-1.295-5.995-2.567-12.001-3.85-17.996-.092-.424-.16-.847-.127-1.315.596 1.27 1.204 2.53 1.8 3.8 1.306 2.785 2.956 5.404 4.4 8.112.344.635.768 1.225.905 1.95-.252 1.738-.492 3.476-.756 5.215-.332 2.117-.688 4.223-1.02 6.34z" fill="#E6485E"/><path d="M23.582 105.218c-.058-.067-.104-.134-.161-.19.057.056.115.123.16.19z" fill="#535D68"/><path d="M71.298 108.561c.7-.725 1.398-1.438 1.903-2.318.206-.357.63-.791.149-1.17a.837.837 0 0 0-.906-.123l.046-.1s3.415-.613 3.495-.457c.08.167-.607 4.223-4.687 4.168z" fill="#F09C69"/><path d="M45.136 83.21c-.687.58-2.314 1.683-4.354 1.416-2.395-.324-4.584-2.396-6.52-6.151C27.018 64.39 21.758 56.79 19.443 57.08c-.584.067-.997.669-1.237 1.76-.837 3.834-.676 15.066-.39 23.824.31 9.494.825 18.163.837 18.252l-.23-.067c0-.089-.515-8.68-.825-18.174-.412-12.747-.286-20.781.39-23.879.264-1.203.745-1.85 1.432-1.939 1.479-.178 3.794 2.218 7.082 7.355 2.27 3.543 4.95 8.301 7.965 14.173 1.89 3.689 4.033 5.717 6.337 6.029 2.04.278 3.655-.903 4.263-1.427a.724.724 0 0 1 .069.223z" fill="#E2313B"/><path d="M53.8 54.595c-1.054 2.33-2.453 3.923-3.037 4.524-.023-.111-.034-.222-.057-.345h-.08a16.05 16.05 0 0 0 2.864-4.323c1.18-2.619 2.132-6.753.115-11.69h.367c2.005 4.993 1.031 9.171-.172 11.834z" fill="#9D9D9E"/></svg>